<svg width="14" height="14" viewBox="0 0 14 14" fill="none" xmlns="http://www.w3.org/2000/svg">
<path d="M3.86229 8.19383C3.92319 8.44544 4.07412 8.669 4.28916 8.82604C4.50421 8.98309 4.76994 9.06382 5.04066 9.05439H11.1168C11.3873 9.06373 11.6527 8.98292 11.8674 8.82585C12.0821 8.66878 12.2327 8.44527 12.2931 8.19383L12.823 4.72534C12.8588 4.54891 12.853 4.36708 12.806 4.19304C12.759 4.019 12.672 3.85709 12.5513 3.71904C12.4306 3.58098 12.2792 3.47023 12.1081 3.39481C11.937 3.3194 11.7504 3.28123 11.5619 3.28301H3.05481M3.86229 8.19383L3.05481 3.28301M3.86229 8.19383C3.86229 8.19383 4.1124 10.8078 6.8506 10.9169H11.7548M3.05481 3.28301L2.81742 1.84264C2.77986 1.64951 2.6727 1.47495 2.51441 1.34916C2.35613 1.22337 2.15671 1.15429 1.95063 1.15381H1.15381M6.34618 11.8805C6.34618 12.4138 5.89262 12.8461 5.33313 12.8461C4.77364 12.8461 4.32008 12.4138 4.32008 11.8805C4.32008 11.3472 4.77364 10.9149 5.33313 10.9149C5.89262 10.9149 6.34618 11.3472 6.34618 11.8805ZM12.7678 11.8805C12.7678 12.4138 12.3143 12.8461 11.7548 12.8461C11.1953 12.8461 10.7417 12.4138 10.7417 11.8805C10.7417 11.3472 11.1953 10.9149 11.7548 10.9149C12.3143 10.9149 12.7678 11.3472 12.7678 11.8805Z" stroke="#F8F8F8" stroke-width="0.730769" stroke-linecap="round" stroke-linejoin="round"/>
</svg>
