<svg width="28" height="26" viewBox="0 0 28 26" fill="none" xmlns="http://www.w3.org/2000/svg">
<path d="M14.1552 3.87863C14.1552 3.87863 13.5965 4.34302 13.0184 5.17026M11.7881 9.56281C11.5973 7.69029 12.3219 6.16692 13.0184 5.17026M13.0184 5.17026C13.689 4.21386 14.5216 3.4735 15.3732 2.91023M15.3732 2.91023C16.8725 1.91854 18.4304 1.47578 19.2668 1.36936C20.2445 1.33048 21.22 1.49038 22.1342 1.83931C23.0484 2.18824 23.8824 2.71896 24.5856 3.39943C27.6266 6.37956 28.0732 11.9988 25.3244 15.3159C22.5757 18.6331 18.0691 20.1029 15.296 23.4768C14.8468 24.0136 14.4637 24.6024 14.1551 25.2308C13.848 24.6026 13.4663 24.0137 13.0184 23.4768C10.2412 20.1029 5.76273 18.6656 2.9856 15.3159C0.208466 11.9663 0.683629 6.38362 3.72467 3.39943C5.35384 1.45059 9.08 -1.07069 15.3732 2.91023Z" stroke="#E95322" stroke-width="1.29996" stroke-linecap="round" stroke-linejoin="round"/>
</svg>
