<svg width="29" height="36" viewBox="0 0 29 36" fill="none" xmlns="http://www.w3.org/2000/svg">
<path d="M24.4905 31.9094C23.9782 30.1928 24.5777 28.3536 25.2471 26.6895C26.3806 24.067 26.9993 21.2499 27.0691 18.3924C27.0691 13.2367 25.2879 7.91748 21.4635 4.34993C19.5168 2.5791 17.0118 1.55052 14.386 1.4438C11.7602 1.33707 9.1805 2.159 7.09737 3.76604C2.55118 7.26936 1.09007 13.1725 1.1541 18.6727V21.3119M19.9442 9.41809C17.6624 6.49865 14.5249 5.33087 11.3059 6.75556C8.77961 7.87663 7.09147 10.3406 6.22997 12.8922C5.14144 16.1036 5.64788 19.4726 5.2928 22.7891C5.10071 24.6634 4.43129 26.6019 2.96441 27.758M21.58 12.3901C22.2998 14.2982 22.6628 16.3231 22.651 18.3632C22.6387 20.9417 22.0415 23.4835 20.9047 25.7961C20.2586 27.1216 18.8964 29.4571 17.0919 28.5404C15.6192 27.793 15.8637 26.0647 16.2828 24.7451C17.0803 22.2403 18.2445 20.074 18.3609 17.3765C18.4715 14.8482 17.6799 12.1915 15.1769 11.1289C14.4645 10.822 13.6706 10.7615 12.9202 10.9571C12.1698 11.1527 11.5056 11.5931 11.0323 12.2091C8.90762 15.1285 10.1068 18.3632 9.12305 21.5805M13.0639 22.0943C12.0976 24.8035 10.9916 28.0324 11.8997 30.9052C13.0115 34.4085 17.0104 35.6113 20.2236 34.4786M8.5526 25.4867C8.25096 26.5985 7.8191 27.6706 7.26612 28.6805C6.71096 29.6945 5.91021 30.5519 4.93773 31.1737M13.9661 18.3165C14.1907 17.3271 14.2536 16.3075 14.1524 15.2978C14.279 16.3069 14.2158 17.3308 13.9661 18.3165Z" stroke="#E95322" stroke-width="2.0179" stroke-linecap="round" stroke-linejoin="round"/>
</svg>
