<svg width="18" height="19" viewBox="0 0 18 19" fill="none" xmlns="http://www.w3.org/2000/svg">
<g clip-path="url(#clip0_286_1920)">
<path d="M12.231 4.0806L10.6405 1.94717C10.4621 1.70949 10.2335 1.51714 9.97251 1.38486C9.71149 1.25257 9.4248 1.18384 9.13426 1.18384C8.84372 1.18384 8.55702 1.25257 8.296 1.38486C8.03499 1.51714 7.80658 1.70949 7.62813 1.94717L6.03767 4.0806C5.81425 4.38119 5.51313 4.60988 5.16929 4.74008L2.72318 5.65348C2.44391 5.75218 2.19054 5.91667 1.98293 6.134C1.77532 6.35134 1.61908 6.61558 1.52661 6.90603C1.43413 7.19649 1.40784 7.50517 1.44988 7.80792C1.49191 8.11066 1.60116 8.39916 1.7689 8.65079L3.23216 10.8832C3.43333 11.1973 3.5437 11.5647 3.55025 11.9417L3.63288 14.6357C3.639 14.9408 3.71323 15.2403 3.84955 15.5107C3.98587 15.7812 4.18069 16.0153 4.41879 16.1947C4.65689 16.3741 4.93171 16.4941 5.22194 16.5451C5.51218 16.5961 5.80987 16.5768 6.09173 16.4888L8.59204 15.737C8.94203 15.6309 9.31391 15.6309 9.66389 15.737L12.1642 16.4888C12.4461 16.5768 12.7438 16.5961 13.034 16.5451C13.3242 16.4941 13.599 16.3741 13.8371 16.1947C14.0752 16.0153 14.2701 15.7812 14.4064 15.5107C14.5427 15.2403 14.6169 14.9408 14.6231 14.6357L14.7057 11.9417C14.7143 11.565 14.8245 11.1983 15.0238 10.8832L16.487 8.65079C16.6518 8.39928 16.759 8.11207 16.8003 7.81106C16.8417 7.51005 16.8161 7.20328 16.7256 6.91408C16.6351 6.62489 16.482 6.36093 16.278 6.14246C16.074 5.92398 15.8245 5.75673 15.5486 5.65348L13.0994 4.74008C12.7555 4.60988 12.4544 4.38119 12.231 4.0806Z" fill="#E95322" stroke="#E95322" stroke-width="1.18378" stroke-linecap="round" stroke-linejoin="round"/>
</g>
<defs>
<clipPath id="clip0_286_1920">
<rect x="0.246582" width="17.7567" height="18.9405" rx="8.87834" fill="white"/>
</clipPath>
</defs>
</svg>
