<svg width="34" height="36" viewBox="0 0 34 36" fill="none" xmlns="http://www.w3.org/2000/svg">
<path d="M22.7786 7.75585L19.7556 3.70087C19.4164 3.2491 18.982 2.8835 18.4859 2.63207C17.9898 2.38064 17.4449 2.25 16.8926 2.25C16.3404 2.25 15.7955 2.38064 15.2994 2.63207C14.8033 2.8835 14.3691 3.2491 14.03 3.70087L11.007 7.75585C10.5823 8.32719 10.01 8.76185 9.35644 9.00933L4.70714 10.7454C4.17633 10.933 3.69476 11.2457 3.30015 11.6587C2.90555 12.0718 2.60858 12.5741 2.43282 13.1261C2.25706 13.6782 2.20709 14.2649 2.28698 14.8403C2.36688 15.4158 2.57453 15.9641 2.89335 16.4424L5.67455 20.6854C6.05692 21.2826 6.26669 21.9807 6.27914 22.6974L6.4362 27.8178C6.44784 28.3977 6.58891 28.967 6.84802 29.481C7.10713 29.9951 7.47742 30.44 7.92997 30.781C8.38253 31.1221 8.90487 31.3501 9.45652 31.4471C10.0082 31.5441 10.574 31.5074 11.1097 31.34L15.862 29.9112C16.5273 29.7094 17.2341 29.7094 17.8993 29.9112L22.6516 31.34C23.1874 31.5074 23.7532 31.5441 24.3048 31.4471C24.8565 31.3501 25.3788 31.1221 25.8314 30.781C26.2839 30.44 26.6542 29.9951 26.9133 29.481C27.1724 28.967 27.3135 28.3977 27.3252 27.8178L27.4822 22.6974C27.4986 21.9814 27.708 21.2844 28.0868 20.6854L30.868 16.4424C31.1813 15.9643 31.3849 15.4184 31.4634 14.8463C31.542 14.2742 31.4935 13.6911 31.3214 13.1414C31.1494 12.5918 30.8584 12.0901 30.4706 11.6748C30.0829 11.2596 29.6087 10.9417 29.0843 10.7454L24.4291 9.00933C23.7756 8.76185 23.2032 8.32719 22.7786 7.75585Z" stroke="#E95322" stroke-width="2.25" stroke-linecap="round" stroke-linejoin="round"/>
</svg>
