<svg width="29" height="28" viewBox="0 0 29 28" fill="none" xmlns="http://www.w3.org/2000/svg">
<path d="M22.8108 6.08905C23.1013 6.21159 23.3853 6.34912 23.6617 6.50104C23.7755 6.56179 23.886 6.62863 23.9927 6.70125C26.4491 8.2413 27.0729 11.2021 27.1499 13.7431C27.1499 14.1282 27.1499 14.5132 27.1499 14.8982V26.5024L22.1447 23.611H19.0992C18.0771 23.7327 17.0485 23.7931 16.0191 23.7919C14.9166 23.801 13.8146 23.7406 12.7196 23.611C9.9976 23.2799 7.32935 22.4251 5.96256 20.4539M22.2448 5.32288C21.6588 4.51755 20.8946 3.85869 20.0118 3.39781C18.3646 2.56796 16.569 2.07328 14.7293 1.94245C13.8553 1.85775 12.8891 1.8039 11.8842 1.80005C9.43551 1.80005 6.78277 2.06955 4.6575 3.23614C4.54362 3.29689 4.43296 3.36373 4.32626 3.43635C1.86988 4.9764 1.24627 7.93716 1.16927 10.4782C1.16927 10.8633 1.1499 11.2483 1.1499 11.6333V23.2414L6.15506 20.3499C6.15506 20.3499 11.2951 20.527 12.2961 20.5309C13.3987 20.54 14.5006 20.4795 15.5956 20.3499C19.1377 19.9226 22.5682 18.5982 23.2227 15.0984C23.4748 13.7409 23.6036 12.3633 23.6077 10.9825C23.6077 8.89962 23.2689 6.77822 22.2448 5.32288Z" stroke="#E95322" stroke-width="2" stroke-linecap="round" stroke-linejoin="round"/>
</svg>
