<svg width="10" height="13" viewBox="0 0 10 13" fill="none" xmlns="http://www.w3.org/2000/svg">
<rect width="10" height="13" fill="#1E1E1E"/>
<g clip-path="url(#clip0_1_423)">
<rect x="-344" y="-338" width="393" height="986" rx="20" fill="#F8F8F8"/>
<rect x="-344" y="-335" width="393" height="852" rx="20" fill="#F5CB58"/>
<path d="M-344 -176C-344 -192.569 -330.569 -206 -314 -206H19C35.5685 -206 49 -192.569 49 -176V517H-344V-176Z" fill="#F8F8F8"/>
<path d="M2.14718 4.31724C1 6.62276 0.310117 10.6379 3.16054 11.8424C3.76629 12.0952 4.41614 12.2254 5.07251 12.2254C5.72888 12.2254 6.37874 12.0952 6.98449 11.8424C9.47005 10.8084 9.47006 7.03861 7.67918 4.35388M3.80263 5.84683V10.1631M6.19737 5.84683V10.1631M3.24657 2.09777C3.24657 1.49391 3.98903 1 4.89881 1H5.10276C6.01254 1 6.75504 1.49391 6.75504 2.09777M1.65963 2.21568H8.34037C8.70467 2.21568 9 2.511 9 2.87531V3.65762C9 4.02192 8.70467 4.31725 8.34037 4.31725H1.65963C1.29533 4.31725 1 4.02192 1 3.65762V2.87531C1 2.511 1.29533 2.21568 1.65963 2.21568Z" stroke="#E95322" stroke-width="0.796654" stroke-linecap="round" stroke-linejoin="round"/>
</g>
<defs>
<clipPath id="clip0_1_423">
<rect x="-344" y="-338" width="393" height="986" rx="20" fill="white"/>
</clipPath>
</defs>
</svg>
