<svg width="32" height="29" viewBox="0 0 32 29" fill="none" xmlns="http://www.w3.org/2000/svg">
<path d="M28.9363 1.46094C30.1647 1.46094 31.1605 2.3132 31.1605 3.36452L31.1605 25.8268C31.1605 26.8781 30.1647 27.7304 28.9363 27.7304H3.07416C1.84577 27.7304 0.849962 26.8781 0.849962 25.8268L0.849963 3.36452C0.849963 2.3132 1.84577 1.46094 3.07416 1.46094L28.9363 1.46094Z" fill="#E95322"/>
<path d="M21.8559 1.46094L21.8559 27.7304M0.849609 8.57557H7.02793C8.39281 8.57557 9.49926 9.55568 9.49926 10.7647V27.7304M21.8559 8.0283H31.1234M21.8559 14.5957H31.1234M21.8559 21.163H31.1234M0.849609 21.163H9.49926M0.849609 15.6902H9.49926M0.849963 3.36452L0.849962 25.8268C0.849962 26.8781 1.84577 27.7304 3.07416 27.7304H28.9363C30.1647 27.7304 31.1605 26.8781 31.1605 25.8268L31.1605 3.36452C31.1605 2.3132 30.1647 1.46094 28.9363 1.46094L3.07416 1.46094C1.84577 1.46094 0.849963 2.3132 0.849963 3.36452Z" stroke="#391713" stroke-linecap="round"/>
</svg>
